<?xml version="1.0" encoding="utf-8"?>
<!-- Generator: Adobe Illustrator 23.0.2, SVG Export Plug-In . SVG Version: 6.00 Build 0)  -->
<svg version="1.1" id="Layer_1" xmlns="http://www.w3.org/2000/svg" xmlns:xlink="http://www.w3.org/1999/xlink" x="0px" y="0px"
	 viewBox="0 0 600 600" style="enable-background:new 0 0 600 600;" xml:space="preserve">
<style type="text/css">
	.st0{fill:#8C58A4;}
</style>
<path class="st0" d="M300,5.13C137.15,5.13,5.13,137.15,5.13,300S137.15,594.88,300,594.88S594.88,462.85,594.88,300
	S462.85,5.13,300,5.13z M470.42,406.05c-8.28,11.85-19.65,21.85-33.8,29.72c-15.07,8.38-31.89,12.63-50,12.63
	c-20.14,0-37.87-4.01-52.69-11.93c-13.33-7.12-27.83-17.12-43.11-29.75c-10.61-8.71-19.29-15.08-25.79-18.92
	c-4.83-2.85-9.43-4.23-14.07-4.23c-17.51,0-32.96,4.07-47.21,12.45c-15.19,8.92-27.93,20.28-37.85,33.76l-0.16,0.21
	c-0.05,0.07-0.77,1.11-2.27,5.04c-1.51,3.97-3.21,7.03-5.2,9.34c-3.51,4.08-9.64,6.42-16.85,6.42c-7.3,0-24.28-2.03-24.28-20.85
	c0-10.75,5.79-21.66,17.22-32.43c12.98-12.67,30.45-23.79,51.81-32.97c22.03-9.47,43.19-14.27,62.88-14.27
	c15.53,0,29.55,3.36,41.65,9.99c10.63,5.83,22.68,14.21,36.86,25.61c13.08,10.53,24.68,18.61,34.5,24.02
	c8.3,4.58,17.37,6.8,27.74,6.8c9.88,0,16.7-2.69,22.12-8.72c6.91-7.69,12.85-17.48,17.67-29.08c6.19-14.5,16.58-21.83,30.91-21.83
	c13.59,0,22.36,5.36,22.36,13.65C482.86,382.35,478.68,394.24,470.42,406.05z M470.42,305.52c-8.28,11.85-19.65,21.85-33.8,29.72
	c-15.07,8.38-31.89,12.63-50,12.63c-20.14,0-37.87-4.01-52.69-11.93c-13.33-7.12-27.83-17.12-43.11-29.75
	c-10.61-8.71-19.29-15.08-25.79-18.92c-4.83-2.85-9.43-4.23-14.07-4.23c-17.51,0-32.96,4.07-47.21,12.45
	c-15.19,8.92-27.93,20.28-37.85,33.76l-0.16,0.21c-0.05,0.07-0.77,1.11-2.27,5.04c-1.51,3.97-3.21,7.03-5.2,9.34
	c-3.51,4.08-9.64,6.42-16.85,6.42c-7.3,0-24.28-2.03-24.28-20.85c0-10.75,5.79-21.66,17.22-32.43
	c12.98-12.67,30.45-23.79,51.81-32.97c22.03-9.47,43.19-14.27,62.88-14.27c15.53,0,29.55,3.36,41.65,9.99
	c10.63,5.83,22.68,14.21,36.86,25.61c13.08,10.53,24.68,18.61,34.5,24.02c8.3,4.58,17.37,6.8,27.74,6.8c9.88,0,16.7-2.69,22.12-8.72
	c6.91-7.69,12.85-17.48,17.67-29.08c6.19-14.5,16.58-21.83,30.91-21.83c13.59,0,22.36,5.36,22.36,13.65
	C482.86,281.82,478.68,293.7,470.42,305.52z M470.42,204.98c-8.28,11.85-19.65,21.85-33.8,29.72c-15.07,8.38-31.89,12.63-50,12.63
	c-20.14,0-37.87-4.01-52.69-11.93c-13.33-7.12-27.83-17.12-43.11-29.75c-10.61-8.71-19.29-15.08-25.79-18.92
	c-4.83-2.85-9.43-4.23-14.07-4.23c-17.51,0-32.96,4.07-47.21,12.45c-15.19,8.92-27.93,20.28-37.85,33.76l-0.16,0.21
	c-0.05,0.07-0.77,1.11-2.27,5.04c-1.51,3.97-3.21,7.03-5.2,9.34c-3.51,4.08-9.64,6.42-16.85,6.42c-7.3,0-24.28-2.03-24.28-20.85
	c0-10.75,5.79-21.66,17.22-32.43c12.98-12.67,30.45-23.79,51.81-32.97c22.03-9.47,43.19-14.27,62.88-14.27
	c15.53,0,29.55,3.36,41.65,9.99c10.63,5.83,22.68,14.21,36.86,25.61c13.08,10.53,24.68,18.61,34.5,24.02
	c8.3,4.58,17.37,6.8,27.74,6.8c9.88,0,16.7-2.69,22.12-8.72c6.91-7.69,12.85-17.48,17.67-29.08c6.19-14.5,16.58-21.83,30.91-21.83
	c13.59,0,22.36,5.36,22.36,13.65C482.86,181.29,478.68,193.17,470.42,204.98z"/>
</svg>
