<?xml version="1.0" encoding="utf-8"?>
<!-- Generator: Adobe Illustrator 23.0.2, SVG Export Plug-In . SVG Version: 6.00 Build 0)  -->
<svg version="1.1" id="Layer_1" xmlns="http://www.w3.org/2000/svg" xmlns:xlink="http://www.w3.org/1999/xlink" x="0px" y="0px"
	 viewBox="0 0 600 600" style="enable-background:new 0 0 600 600;" xml:space="preserve">
<style type="text/css">
	.st0{fill:#40B549;}
	.st1{fill:none;}
</style>
<polygon class="st0" points="300,372.71 277.33,416.69 322.67,416.69 "/>
<polygon class="st0" points="338.16,446.73 261.84,446.73 237.69,493.59 362.31,493.59 "/>
<path class="st0" d="M377.8,523.63H222.2l-26.86,52.11c32.53,12.35,67.8,19.14,104.66,19.14s72.13-6.78,104.66-19.14L377.8,523.63z"
	/>
<path class="st1" d="M419.1,269.63c0,39.51-19.25,74.52-48.87,96.19l27.1,37.12c39.14-29.98,64.42-77.09,64.42-129.98
	c0-54.29-26.64-102.49-67.56-132.33l-23.95,32.81C399.85,195.11,419.1,230.12,419.1,269.63z"/>
<path class="st1" d="M132.88,272.96c0,54.44,26.78,102.76,67.9,132.57l28.99-39.71c-29.62-21.67-48.87-56.68-48.87-96.19
	s19.25-74.52,48.87-96.19l-25.79-35.32C161.06,167.72,132.88,217.12,132.88,272.96z"/>
<path class="st0" d="M300,5.13C137.15,5.13,5.13,137.15,5.13,300c0,109.39,59.57,204.87,148.03,255.77l119.77-232.35
	c-19.01-9.82-32.02-29.64-32.02-52.52c0-32.63,26.45-59.09,59.09-59.09s59.09,26.45,59.09,59.09c0,22.87-13.01,42.7-32.02,52.52
	l119.77,232.35c88.47-50.9,148.03-146.38,148.03-255.77C594.88,137.15,462.85,5.13,300,5.13z M189.42,413.33
	c-46.69-32.08-77.1-84.06-77.1-142.62c0-59.89,31.8-112.9,80.3-144.78l13.13,17.04c-42.93,28.04-71.11,74.84-71.11,127.74
	c0,51.57,26.78,97.35,67.9,125.59L189.42,413.33z M203.78,267.56c0,30.8,15.84,58.09,40.21,74.97l-12.45,16.15
	c-29.62-20.52-48.87-53.69-48.87-91.13c0-37.43,19.25-70.6,48.87-91.12l12.45,16.15C219.61,209.47,203.78,236.76,203.78,267.56z
	 M371.99,358.68l-12.45-16.15c24.37-16.89,40.21-44.18,40.21-74.97c0-30.8-15.84-58.09-40.21-74.97l12.45-16.15
	c29.62,20.52,48.87,53.69,48.87,91.12C420.86,304.99,401.61,338.16,371.99,358.68z M412.22,410.88l-13.13-17.04
	c39.14-28.4,64.42-73.03,64.42-123.13c0-51.43-26.64-97.09-67.56-125.36l13.13-17.03c46.5,32.1,76.76,83.97,76.76,142.39
	C485.83,327.8,456.92,378.64,412.22,410.88z"/>
</svg>
