<?xml version="1.0" encoding="utf-8"?>
<!-- Generator: Adobe Illustrator 23.0.2, SVG Export Plug-In . SVG Version: 6.00 Build 0)  -->
<svg version="1.1" id="Layer_1" xmlns="http://www.w3.org/2000/svg" xmlns:xlink="http://www.w3.org/1999/xlink" x="0px" y="0px"
	 viewBox="0 0 600 600" style="enable-background:new 0 0 600 600;" xml:space="preserve">
<style type="text/css">
	.st0{fill:#0EB4DA;}
</style>
<path class="st0" d="M300,5.13C137.15,5.13,5.13,137.15,5.13,300S137.15,594.88,300,594.88S594.88,462.85,594.88,300
	S462.85,5.13,300,5.13z M463.53,358.05c0,32.6-26.43,59.04-59.04,59.04H195.5c-32.6,0-59.04-26.43-59.04-59.04V241.95
	c0-32.6,26.43-59.04,59.04-59.04h44.66v-9.46c0-17.64,14.3-31.94,31.94-31.94h55.78c17.64,0,31.94,14.3,31.94,31.94v9.46h44.66
	c32.6,0,59.04,26.43,59.04,59.04V358.05z"/>
<circle class="st0" cx="300" cy="296" r="70.75"/>
</svg>
