<?xml version="1.0" encoding="utf-8"?>
<!-- Generator: Adobe Illustrator 23.0.2, SVG Export Plug-In . SVG Version: 6.00 Build 0)  -->
<svg version="1.1" id="Layer_1" xmlns="http://www.w3.org/2000/svg" xmlns:xlink="http://www.w3.org/1999/xlink" x="0px" y="0px"
	 viewBox="0 0 600 600" style="enable-background:new 0 0 600 600;" xml:space="preserve">
<style type="text/css">
	.st0{fill:#F04F46;}
</style>
<path class="st0" d="M300,5.13C137.15,5.13,5.13,137.15,5.13,300S137.15,594.88,300,594.88S594.88,462.85,594.88,300
	S462.85,5.13,300,5.13z M164.24,86.37h36.16c0.83,0,1.66,0.28,2.48,0.28c10.21,1.38,18.22,9.94,18.22,20.42v151.8
	c0,11.32-9.38,20.7-20.7,20.7c-11.59,0-20.42-9.38-20.42-20.7V122.8h-15.73c-9.94,0-17.94-8.28-17.94-18.22
	S154.31,86.37,164.24,86.37z M254.07,469.73c-3.04,7.45-7.45,14.08-13.25,19.87c-5.8,5.8-12.42,10.49-19.87,13.8
	c-8,3.31-16.01,4.97-24.56,4.97c-11.32,0-22.36-3.04-31.74-8.56c-9.38-5.52-17.11-13.25-22.36-22.36
	c-5.8-9.94-2.76-22.08,6.62-27.88c9.94-5.8,22.36-2.76,28.15,7.18c4.14,6.35,11.32,10.49,19.32,10.49
	c12.14,0,22.36-9.94,22.36-22.08c0-12.14-10.21-22.08-22.36-22.08c-11.59,0-20.7-8.83-20.7-20.15v-0.28
	c0-11.32,9.11-20.42,20.7-20.42c7.18,0,13.25-5.8,13.25-13.25c0-7.18-6.07-12.97-13.25-12.97c-4.14,0-7.73,1.66-10.21,4.69
	c-7.45,8.56-20.15,9.66-28.7,2.48c-8.83-7.18-9.94-19.87-2.76-28.7c10.49-12.14,25.39-19.32,41.68-19.32
	c14.35,0,28.15,5.8,38.36,16.01c10.21,10.21,15.46,23.74,15.46,37.81c0,11.32-3.59,22.36-9.66,31.46c0.28,0.28,0.28,0.28,0.28,0.55
	c5.8,5.8,10.21,12.42,13.25,19.87h0c3.59,7.73,5.24,16.01,5.24,24.29C259.31,454,257.65,461.73,254.07,469.73z M400.25,122.65
	c-10.21-9.94-26.22-9.66-35.88,0.28L358.3,129c-7.18,7.18-18.49,7.18-25.94,0.28c-6.9-7.18-7.18-18.49,0-25.67l6.07-6.35
	c5.8-5.8,12.7-10.49,20.15-13.52c7.45-3.31,15.18-4.69,23.46-4.69c7.73-0.28,15.73,1.38,22.91,4.14c7.73,3.04,14.63,7.73,20.7,13.52
	c5.8,5.52,10.49,12.7,13.8,20.15c3.04,7.45,4.69,15.18,4.69,23.18c0,8-1.38,15.73-4.42,23.18s-7.45,14.08-12.97,19.87l-43.61,52.99
	h42.5c10.21,0,18.49,8.28,18.49,18.22c0,9.94-8.28,18.22-18.49,18.22H344.5h-0.28c-4.14,0-8-1.66-11.59-4.14
	c-7.73-6.62-8.83-18.22-2.21-25.94l69.55-83.63l0.55-0.55C410.19,148.32,410.19,132.31,400.25,122.65z M432.17,465.7v15.18
	c0,11.32-9.11,20.42-20.7,20.42c-11.32,0-20.42-9.11-20.42-20.42V465.7h-62.1h-0.55c0,0,0,0-0.28,0c-3.31,0-6.9-1.1-10.21-3.04
	c-8.28-5.8-10.49-17.11-4.69-25.39l81.42-120.89c1.66-2.21,3.59-4.14,6.07-5.52c3.04-1.93,6.9-3.04,10.76-3.04
	c11.59,0,20.7,9.11,20.7,20.42v101.02c10.21,0,18.22,8.28,18.22,18.22C450.39,457.42,442.38,465.7,432.17,465.7z"/>
<polygon class="st0" points="391.05,429.26 391.05,387.04 362.34,429.26 "/>
</svg>
