<?xml version="1.0" encoding="utf-8"?>
<!-- Generator: Adobe Illustrator 23.0.2, SVG Export Plug-In . SVG Version: 6.00 Build 0)  -->
<svg version="1.1" id="Layer_1" xmlns="http://www.w3.org/2000/svg" xmlns:xlink="http://www.w3.org/1999/xlink" x="0px" y="0px"
	 viewBox="0 0 503.16 65.97" style="enable-background:new 0 0 503.16 65.97;" xml:space="preserve">
<style type="text/css">
	.st0{clip-path:url(#SVGID_2_);}
	.st1{clip-path:url(#SVGID_6_);}
	.st2{clip-path:url(#SVGID_10_);}
	.st3{clip-path:url(#SVGID_14_);}
	.st4{fill-rule:evenodd;clip-rule:evenodd;fill:#1B242F;}
	.st5{fill-rule:evenodd;clip-rule:evenodd;fill:#E8453C;}
</style>
<g>
	<g>
		<defs>
			<path id="SVGID_1_" d="M23.06,36.47c4.87,0,8.85-1.92,11.95-5.75l6.35,6.51c-5.04,5.65-10.98,8.47-17.82,8.47
				c-6.84,0-12.48-2.15-16.9-6.45C2.21,34.95,0,29.53,0,22.97c0-6.55,2.25-12.02,6.77-16.4C11.28,2.19,16.79,0,23.32,0
				c7.29,0,13.39,2.76,18.3,8.28l-6.16,6.95c-3.13-3.88-7.03-5.81-11.69-5.81c-3.73,0-6.92,1.21-9.56,3.63
				c-2.65,2.42-3.97,5.69-3.97,9.8c0,4.11,1.25,7.41,3.75,9.89C16.48,35.23,19.51,36.47,23.06,36.47"/>
		</defs>
		<use xlink:href="#SVGID_1_"  style="overflow:visible;fill-rule:evenodd;clip-rule:evenodd;fill:#1B242F;"/>
		<clipPath id="SVGID_2_">
			<use xlink:href="#SVGID_1_"  style="overflow:visible;"/>
		</clipPath>
		<g class="st0">
			<defs>
				<rect id="SVGID_3_" x="-160.96" y="-665.63" width="832.66" height="1207.82"/>
			</defs>
			<use xlink:href="#SVGID_3_"  style="overflow:visible;fill:#1B242F;"/>
			<clipPath id="SVGID_4_">
				<use xlink:href="#SVGID_3_"  style="overflow:visible;"/>
			</clipPath>
		</g>
	</g>
	<g>
		<defs>
			<rect id="SVGID_5_" x="48.91" y="1.01" width="9.91" height="44.18"/>
		</defs>
		<use xlink:href="#SVGID_5_"  style="overflow:visible;fill-rule:evenodd;clip-rule:evenodd;fill:#1B242F;"/>
		<clipPath id="SVGID_6_">
			<use xlink:href="#SVGID_5_"  style="overflow:visible;"/>
		</clipPath>
		<g class="st1">
			<defs>
				<rect id="SVGID_7_" x="-160.96" y="-665.63" width="832.66" height="1207.82"/>
			</defs>
			<use xlink:href="#SVGID_7_"  style="overflow:visible;fill:#1B242F;"/>
			<clipPath id="SVGID_8_">
				<use xlink:href="#SVGID_7_"  style="overflow:visible;"/>
			</clipPath>
		</g>
	</g>
	<g>
		<defs>
			<polyline id="SVGID_9_" points="87.92,9.54 87.92,45.19 78.01,45.19 78.01,9.54 65.43,9.54 65.43,1.01 100.5,1.01 100.5,9.54 
				87.92,9.54 			"/>
		</defs>
		<use xlink:href="#SVGID_9_"  style="overflow:visible;fill-rule:evenodd;clip-rule:evenodd;fill:#1B242F;"/>
		<clipPath id="SVGID_10_">
			<use xlink:href="#SVGID_9_"  style="overflow:visible;"/>
		</clipPath>
		<g class="st2">
			<defs>
				<rect id="SVGID_11_" x="-160.96" y="-665.63" width="832.66" height="1207.82"/>
			</defs>
			<use xlink:href="#SVGID_11_"  style="overflow:visible;fill:#1B242F;"/>
			<clipPath id="SVGID_12_">
				<use xlink:href="#SVGID_11_"  style="overflow:visible;"/>
			</clipPath>
		</g>
	</g>
	<g>
		<defs>
			<polyline id="SVGID_13_" points="129.61,45.19 119.7,45.19 119.7,27.75 104.32,1.01 115.06,1.01 124.65,17.44 134.25,1.01 
				144.99,1.01 129.61,27.75 129.61,45.19 			"/>
		</defs>
		<use xlink:href="#SVGID_13_"  style="overflow:visible;fill-rule:evenodd;clip-rule:evenodd;fill:#1B242F;"/>
		<clipPath id="SVGID_14_">
			<use xlink:href="#SVGID_13_"  style="overflow:visible;"/>
		</clipPath>
		<g class="st3">
			<defs>
				<rect id="SVGID_15_" x="-160.96" y="-665.63" width="832.66" height="1207.82"/>
			</defs>
			<use xlink:href="#SVGID_15_"  style="overflow:visible;fill:#1B242F;"/>
			<clipPath id="SVGID_16_">
				<use xlink:href="#SVGID_15_"  style="overflow:visible;"/>
			</clipPath>
		</g>
	</g>
	<g>
		<defs>
			<path id="SVGID_17_" d="M185.59,21.25c0-1.56-0.36-2.77-1.08-3.65c-0.71-0.88-1.74-1.32-3.07-1.32c-1.36,0-2.58,0.52-3.65,1.56
				c-1.07,1.04-1.91,2.45-2.5,4.23c-0.59,1.78-0.89,3.68-0.89,5.7c0,1.61,0.36,2.85,1.09,3.71c0.72,0.86,1.79,1.29,3.21,1.29
				c1.32,0,2.5-0.49,3.55-1.48c1.05-0.99,1.87-2.37,2.45-4.15C185.3,25.35,185.59,23.39,185.59,21.25z M190.78,21.47
				c0,2.94-0.53,5.61-1.6,8.02c-1.07,2.41-2.53,4.25-4.4,5.54c-1.86,1.29-4.01,1.93-6.43,1.93c-2.81,0-5.03-0.83-6.69-2.5
				c-1.65-1.66-2.48-3.93-2.48-6.79c0-2.89,0.52-5.55,1.57-7.96c1.05-2.41,2.51-4.29,4.4-5.64c1.89-1.34,4.06-2.02,6.53-2.02
				c2.85,0,5.08,0.84,6.69,2.53C189.98,16.26,190.78,18.56,190.78,21.47z"/>
		</defs>
		<use xlink:href="#SVGID_17_"  style="overflow:visible;fill-rule:evenodd;clip-rule:evenodd;fill:#1B242F;"/>
		<clipPath id="SVGID_18_">
			<use xlink:href="#SVGID_17_"  style="overflow:visible;"/>
		</clipPath>
	</g>
	<g>
		<defs>
			<path id="SVGID_19_" d="M190.14,47.29c-1.32,0-2.4-0.17-3.27-0.5v-4.14c0.94,0.29,1.77,0.44,2.5,0.44c1.96,0,3.25-1.49,3.88-4.47
				l4.76-22.29h-3.92l0.46-2.31l4.25-1.66l0.46-2.01c0.64-2.88,1.63-4.92,2.95-6.14c1.32-1.21,3.2-1.82,5.62-1.82
				c1.68,0,3.22,0.31,4.63,0.94l-1.34,3.84c-1.08-0.41-2.08-0.61-2.98-0.61c-1.01,0-1.82,0.31-2.42,0.94
				c-0.61,0.63-1.07,1.65-1.39,3.08l-0.39,1.88h5.02l-0.81,3.88h-5.02l-4.89,22.96c-0.59,2.75-1.54,4.77-2.87,6.06
				C194.03,46.64,192.29,47.29,190.14,47.29"/>
		</defs>
		<use xlink:href="#SVGID_19_"  style="overflow:visible;fill-rule:evenodd;clip-rule:evenodd;fill:#1B242F;"/>
		<clipPath id="SVGID_20_">
			<use xlink:href="#SVGID_19_"  style="overflow:visible;"/>
		</clipPath>
	</g>
	<path class="st4" d="M244.5,36.85h6.8c2.84,0,4.97-0.35,6.39-1.04c1.42-0.7,2.13-2.06,2.13-4.11c0-2.04-0.75-3.39-2.26-4.04
		c-1.51-0.65-3.91-0.98-7.21-0.98h-5.85V36.85z M244.5,18.9h4.7c2.75,0,4.8-0.29,6.13-0.89c1.33-0.59,2-1.86,2-3.82
		c0-1.96-0.61-3.26-1.84-3.89c-1.23-0.63-3.3-0.95-6.23-0.95h-4.77V18.9z M254.03,45.19h-19.44V1.01h17.28
		c3.01,0,5.6,0.36,7.78,1.07c2.18,0.72,3.82,1.69,4.92,2.91c1.99,2.28,2.99,4.85,2.99,7.71c0,3.45-1.12,6.03-3.37,7.71
		c-0.76,0.59-1.29,0.96-1.59,1.11c-0.3,0.15-0.83,0.39-1.59,0.73c2.75,0.59,4.95,1.82,6.58,3.7c1.63,1.88,2.45,4.2,2.45,6.98
		c0,3.08-1.06,5.79-3.18,8.15C264.41,43.82,260.13,45.19,254.03,45.19z"/>
	<path class="st4" d="M312.1,22.85c0-3.94-1.27-7.3-3.81-10.08c-2.54-2.78-5.67-4.17-9.37-4.17c-3.71,0-6.83,1.39-9.37,4.17
		c-2.54,2.78-3.81,6.14-3.81,10.08c0,3.94,1.27,7.29,3.81,10.05c2.54,2.76,5.67,4.14,9.37,4.14c3.71,0,6.83-1.38,9.37-4.14
		C310.83,30.14,312.1,26.79,312.1,22.85z M315.47,39.09c-4.49,4.36-10.02,6.54-16.58,6.54c-6.57,0-12.09-2.18-16.58-6.54
		c-4.49-4.36-6.74-9.79-6.74-16.28c0-6.49,2.25-11.91,6.74-16.27C286.79,2.18,292.32,0,298.89,0c6.57,0,12.09,2.18,16.58,6.54
		c4.49,4.36,6.73,9.79,6.73,16.27C322.2,29.31,319.96,34.73,315.47,39.09z"/>
	<path class="st4" d="M340.59,9.83c-0.95,0.78-1.43,1.81-1.43,3.1c0,1.29,0.58,2.31,1.75,3.06c1.16,0.76,3.85,1.65,8.07,2.69
		c4.21,1.03,7.49,2.58,9.82,4.65c2.33,2.06,3.49,5.08,3.49,9.04c0,3.96-1.49,7.17-4.48,9.64c-2.99,2.46-6.92,3.7-11.79,3.7
		c-7.03,0-13.37-2.59-19-7.77l5.91-7.21c4.79,4.17,9.21,6.26,13.28,6.26c1.82,0,3.25-0.39,4.29-1.17c1.04-0.78,1.56-1.83,1.56-3.16
		s-0.55-2.38-1.65-3.16c-1.1-0.78-3.28-1.57-6.54-2.37c-5.17-1.22-8.95-2.81-11.34-4.77c-2.39-1.96-3.59-5.03-3.59-9.23
		c0-4.19,1.51-7.43,4.54-9.7C336.5,1.14,340.28,0,344.82,0c2.97,0,5.93,0.51,8.9,1.52c2.96,1.01,5.55,2.44,7.75,4.3l-5.02,7.2
		c-3.85-2.91-7.84-4.36-11.95-4.36C342.85,8.66,341.54,9.05,340.59,9.83"/>
	<polyline class="st4" points="389.78,9.54 389.78,45.19 379.87,45.19 379.87,9.54 367.29,9.54 367.29,1.01 402.36,1.01 
		402.36,9.54 389.78,9.54 	"/>
	<path class="st4" d="M442.44,22.85c0-3.94-1.27-7.3-3.81-10.08c-2.54-2.78-5.67-4.17-9.37-4.17c-3.71,0-6.83,1.39-9.37,4.17
		c-2.54,2.78-3.81,6.14-3.81,10.08c0,3.94,1.27,7.29,3.81,10.05c2.54,2.76,5.66,4.14,9.37,4.14c3.71,0,6.83-1.38,9.37-4.14
		C441.17,30.14,442.44,26.79,442.44,22.85z M445.81,39.09c-4.49,4.36-10.02,6.54-16.58,6.54c-6.57,0-12.09-2.18-16.58-6.54
		c-4.49-4.36-6.73-9.79-6.73-16.28c0-6.49,2.25-11.91,6.73-16.27C417.13,2.18,422.66,0,429.23,0c6.56,0,12.09,2.18,16.58,6.54
		c4.49,4.36,6.73,9.79,6.73,16.27C452.55,29.31,450.3,34.73,445.81,39.09z"/>
	<polyline class="st4" points="492.14,1.01 502.05,1.01 502.05,45.19 492.14,45.19 470.98,17.51 470.98,45.19 461.07,45.19 
		461.07,1.01 470.34,1.01 492.14,29.45 492.14,1.01 	"/>
	<rect x="234.86" y="56.04" class="st5" width="268.3" height="9.93"/>
</g>
</svg>
