<?xml version="1.0" encoding="utf-8"?>
<!-- Generator: Adobe Illustrator 23.0.2, SVG Export Plug-In . SVG Version: 6.00 Build 0)  -->
<svg version="1.1" id="Layer_1" xmlns="http://www.w3.org/2000/svg" xmlns:xlink="http://www.w3.org/1999/xlink" x="0px" y="0px"
	 viewBox="0 0 600 600" style="enable-background:new 0 0 600 600;" xml:space="preserve">
<style type="text/css">
	.st0{fill:#FF6FE2;}
</style>
<path class="st0" d="M300,5.13C137.15,5.13,5.13,137.15,5.13,300S137.15,594.87,300,594.87S594.88,462.85,594.88,300
	S462.85,5.13,300,5.13z M154.62,273.23c9.94,0,18.22,8.28,18.22,18.22c0,10.21-8.28,18.22-18.22,18.22h-44.71v37.54h44.71
	c11.32,0,20.7,9.11,20.7,20.42c0,11.59-9.38,20.7-20.7,20.7H89.48c-11.59,0-20.7-9.11-20.7-20.7V215.55c0-11.59,9.11-20.7,20.7-20.7
	h65.14c11.32,0,20.7,9.11,20.7,20.7c0,11.32-9.38,20.42-20.7,20.42h-44.71v37.26H154.62z M295.38,236.53h-20.7V367.9
	c0,11.04-9.11,20.42-20.7,20.42c-11.32,0-20.42-9.38-20.42-20.42V236.53h-20.98c-11.32,0-20.42-9.38-20.42-20.98
	c0-11.32,9.11-20.42,20.42-20.42h82.8c11.32,0,20.7,9.11,20.7,20.42C316.08,227.14,306.69,236.53,295.38,236.53z M383.42,330.92
	c10.21,10.49,24.29,16.01,38.92,16.01c12.14,0,23.74-3.86,33.4-11.32c9.11-6.9,22.08-4.97,28.98,3.86
	c6.9,9.11,5.24,22.08-3.86,28.98c-8.28,6.35-17.39,11.32-27.05,14.63c-10.21,3.59-20.7,5.24-31.46,5.24
	c-12.97,0-25.67-2.48-37.54-7.45c-11.59-4.97-21.8-11.87-30.64-20.7s-15.73-19.32-20.7-30.64c-4.97-11.87-7.45-24.56-7.45-37.54
	s2.48-25.67,7.45-37.54c4.97-11.59,11.87-21.8,20.7-30.64s19.04-16.01,30.64-20.7c11.87-4.97,24.56-7.73,37.54-7.73
	c10.76,0,21.53,1.93,31.46,5.52c9.94,3.31,19.04,8.28,27.32,14.63c8.83,6.9,10.76,19.87,3.59,28.98c-3.86,5.24-10.21,8-16.28,8
	c-4.42,0-8.83-1.38-12.7-4.42c-9.66-7.45-21.25-11.32-33.4-11.32c-14.63,0-28.7,5.8-38.92,16.01
	c-10.49,10.49-16.28,24.29-16.28,39.19C367.13,306.63,372.93,320.43,383.42,330.92z M523.35,388.33c-11.04,0-20.15-8.83-20.15-19.87
	c0-10.76,9.11-19.6,20.15-19.6s19.87,8.83,19.87,19.6C543.22,379.5,534.39,388.33,523.35,388.33z"/>
</svg>
